<?xml version="1.0" encoding="UTF-8"?>
<svg width="400" height="400" version="1.1" xmlns="http://www.w3.org/2000/svg">
 <path d="M133.028 63.4972c1.68071,1.13858 3.08268,2.63858 4.19409,4.48583 1.11142,1.84724 1.66654,4.08425 1.66654,6.70866 0,2.6811 -0.583465,5.01378 -1.75039,7.00039 -1.16575,1.98543 -2.67992,3.61063 -4.55551,4.88858 -1.8189,1.23661 -3.87402,2.19449 -6.16654,2.84764 -2.29134,0.65315 -4.65236,0.972047 -7.09724,0.972047l-27.3472 0 0 -2.88898c0.65315,-0.0555118 1.61102,-0.166535 2.84764,-0.347244 1.24961,-0.180709 2.15197,-0.388583 2.69409,-0.624803 0.833858,-0.388583 1.43031,-0.88937 1.79173,-1.52835 0.347244,-0.638976 0.527953,-1.45748 0.527953,-2.45787l0 -41.5146c0,-0.916535 -0.152362,-1.73622 -0.472441,-2.4437 -0.305906,-0.694488 -0.930709,-1.26378 -1.84724,-1.70906 -0.819685,-0.402756 -1.72205,-0.70748 -2.73661,-0.930709 -0.999213,-0.222047 -1.83307,-0.347244 -2.51339,-0.402756l0 -2.88898 26.6528 0c2.0563,0 4.02756,0.194882 5.91732,0.611811 1.88858,0.402756 3.68031,1.12441 5.38819,2.15315 1.59803,0.943701 2.91732,2.23583 3.94488,3.86102 1.04173,1.62402 1.55551,3.61063 1.55551,5.94449 0,2.04094 -0.375591,3.84685 -1.09724,5.43071 -0.735827,1.58268 -1.76339,2.95748 -3.09685,4.09724 -1.25079,1.08307 -2.6811,1.99961 -4.29213,2.73543 -1.61102,0.75 -3.36142,1.33346 -5.23583,1.73622l0 0.361417c1.66654,0.193701 3.51378,0.61063 5.55591,1.24961 2.05512,0.624803 3.87402,1.51417 5.47205,2.65276zm-9.80551 -8.69409c1.01339,-1.16693 1.70787,-2.44488 2.09646,-3.83386 0.402756,-1.3748 0.597638,-3.02717 0.597638,-4.91693 0,-3.17953 -0.875197,-5.66575 -2.61142,-7.47165 -1.73622,-1.80591 -4.47165,-2.70827 -8.22165,-2.70827 -0.861024,0 -1.95827,0.0271654 -3.26457,0.069685 -1.31929,0.0413386 -2.43071,0.0685039 -3.3189,0.0968504l0 22.1811 5.16614 0c2.22283,0 4.12559,-0.291732 5.70827,-0.861024 1.59803,-0.570472 2.8748,-1.41732 3.84803,-2.55591zm5.62441 18.4299c0,-3.41575 -1.15276,-6.23504 -3.44409,-8.42953 -2.29134,-2.19449 -5.57008,-3.29173 -9.81969,-3.29173 -1.73622,0 -3.20787,0.0129921 -4.40315,0.0555118 -1.19409,0.0413386 -2.08346,0.0826772 -2.67992,0.111024l0 20.3327c0,1.72323 0.694488,3 2.06929,3.8752 1.38898,0.861024 3.30591,1.3063 5.77795,1.3063 4.04173,0 7.13858,-1.1811 9.27756,-3.54213 2.13898,-2.36102 3.22205,-5.83346 3.22205,-10.4173z"/>
</svg>