<?xml version="1.0" encoding="UTF-8" standalone="no"?>
<svg xmlns="http://www.w3.org/2000/svg" version="1.0" width="90" height="90">
  <path d="M 27.973963,53.186085 C 27.588283,52.800405 27.272727,48.959849 27.272727,44.651515 C 27.272727,40.343182 26.935227,36.830903 26.522727,36.846452 C 26.110227,36.862 23.112454,38.642229 19.86101,40.802515 C 12.581225,45.639266 8.4288258,46.752145 6.6645056,44.339293 C 4.2028264,40.972746 7.7094428,36.863125 12.899989,37.031543 C 16.408131,37.145372 22.763653,33.637912 24.32056,30.728805 C 25.230893,29.027833 24.982615,28.818794 22.057911,28.823759 C 20.25106,28.826826 17.02298,29.315165 14.884399,29.908957 C 11.867982,30.746486 10.818499,30.701259 10.204175,29.707262 C 8.1472259,26.379048 12.696536,23.66736 22.582641,22.328881 C 28.218248,21.565876 28.440244,19.623156 22.993003,18.737732 C 19.041231,18.09539 16.011114,16.10302 16.545912,14.498626 C 16.7328,13.937964 20.010287,13.422607 23.829217,13.353389 C 27.648148,13.28417 32.910227,12.849266 35.522727,12.386935 C 39.931055,11.606799 40.272727,11.695317 40.272727,13.61753 C 40.272727,15.076875 39.238793,16.062601 36.772727,16.954342 C 34.538642,17.762198 33.272727,18.870679 33.272727,20.01907 C 33.272727,21.579875 34.199933,21.818182 40.272727,21.818182 C 47.046081,21.818182 47.272727,21.897988 47.272727,24.282998 C 47.272727,27.191129 44.746377,28.800923 40.088468,28.860819 L 36.772727,28.903457 L 41.272727,32.878189 C 46.999007,37.936061 54.708054,41.818182 59.025607,41.818182 L 62.385799,41.818182 L 60.663992,44.73297 C 58.855421,47.794636 55.502799,49.818182 52.238784,49.818182 C 51.171874,49.818182 46.468048,46.409778 41.785837,42.24395 L 33.272727,34.669718 L 33.173047,41.49395 C 33.118223,45.247278 32.760993,49.440819 32.379202,50.812931 C 31.693564,53.277031 29.335322,54.547444 27.973963,53.186085 z"></path>
</svg>