<?xml version="1.0" encoding="UTF-8"?>
<svg width="400" height="400" version="1.1" xmlns="http://www.w3.org/2000/svg">
 <path d="M712.65 226.013c-0.861024,-0.0826772 -1.86142,-0.124016 -2.98583,-0.124016 -1.12559,0 -1.91693,-0.0141732 -2.3752,-0.0425197 -1.36181,-0.0555118 -2.40354,-0.540945 -3.13937,-1.48583 -0.735827,-0.930709 -1.09724,-1.90276 -1.09724,-2.90315 0,-1.22244 0.472441,-2.3185 1.43031,-3.30472 0.944882,-0.973228 2.30551,-1.45866 4.07008,-1.45866 2.19449,0 4.0689,0.694488 5.61142,2.06929 1.54134,1.38898 2.8748,3.69449 3.98622,6.91654 1.24961,3.58346 2.55472,7.22244 3.90236,10.9311 1.36063,3.70748 2.6811,7.3748 3.94488,11.0138 1.61102,4.47165 3.11102,8.67992 4.5,12.6248 1.40197,3.94488 2.61024,7.1811 3.63898,9.70866 1.08307,2.65276 1.99961,4.40315 2.74961,5.22165 0.75,0.833858 2.04213,1.25079 3.88937,1.25079l1.83307 0 0 2.59724c-1.36181,0.416929 -2.57008,0.764173 -3.65315,1.08307 -1.0689,0.305906 -2.20866,0.472441 -3.42992,0.472441 -1.13976,0 -2.07047,-0.222047 -2.79213,-0.65315 -0.722835,-0.444094 -1.34764,-1.05591 -1.88858,-1.87441 -0.51378,-0.79252 -0.959055,-1.77874 -1.34764,-2.97283 -0.375591,-1.19409 -0.722835,-2.33268 -1.05591,-3.41693 -0.680315,-2.25 -1.51299,-5.36102 -2.49921,-9.33307 -0.98622,-3.98622 -2.27835,-8.59724 -3.84803,-13.8614 -1.8189,3.58346 -3.8752,7.84724 -6.16654,12.7925 -2.29134,4.95827 -4.13858,8.8748 -5.55591,11.7496 -0.694488,1.40315 -1.22126,2.61142 -1.55551,3.61063 -0.347244,1.01457 -0.694488,2.0563 -1.04173,3.13937l-9.27756 0 19.9028 -40.2083c-0.930709,-3.13937 -1.84724,-5.76378 -2.74961,-7.84724 -0.916535,-2.08346 -1.90276,-3.98622 -3,-5.69528z"/>
</svg>