<?xml version="1.0" encoding="UTF-8"?>
<svg width="400" height="400" version="1.1" xmlns="http://www.w3.org/2000/svg">
 <path d="M811.625 278.986c-1.27795,0.472441 -2.45787,0.833858 -3.55512,1.12559 -1.09724,0.277559 -2.26417,0.431102 -3.48661,0.431102 -2.11063,0 -3.86102,-0.500787 -5.25,-1.48701 -1.3748,-0.999213 -2.25,-2.58307 -2.59724,-4.79173l-0.250394 0c-0.666142,0.708661 -1.45748,1.5 -2.33268,2.38937 -0.88937,0.875197 -1.75039,1.55551 -2.58307,2.01378 -1.05591,0.624803 -2.16732,1.09724 -3.33425,1.44449 -1.16575,0.333071 -2.70827,0.51378 -4.59685,0.51378 -1.58386,0 -3.06969,-0.333071 -4.45866,-0.98622 -1.40197,-0.65315 -2.4437,-1.41614 -3.15236,-2.31969l-0.250394 0 0 2.36102c0,1.3063 0.111024,2.55591 0.333071,3.76417 0.209055,1.20827 0.458268,2.45906 0.722835,3.76417 0.277559,1.36063 0.51378,2.50039 0.721654,3.41693 0.194882,0.930709 0.305906,1.90276 0.305906,2.93031 0,1.44449 -0.51378,2.51339 -1.51417,3.22205 -0.999213,0.694488 -2.01378,1.05591 -3.05551,1.05591 -1.13858,0 -2.08346,-0.361417 -2.84646,-1.05591 -0.75,-0.708661 -1.13976,-1.70787 -1.13976,-3.01417 0,-1.41614 0.23622,-3.38858 0.694488,-5.91614 0.458268,-2.54173 0.778346,-4.5 0.944882,-5.88898 0.180709,-1.59685 0.305906,-2.98583 0.374409,-4.15276 0.069685,-1.16693 0.112205,-2.36102 0.112205,-3.56929l0 -34.598 7.72205 0 0 27.5563c0,2.59724 0.70748,4.72205 2.09646,6.36142 1.40315,1.63819 3.13937,2.45787 5.23701,2.45787 1.48583,0 2.83346,-0.207874 4.04173,-0.638976 1.20827,-0.444094 2.18031,-0.944882 2.91614,-1.51417 0.833858,-0.624803 1.52835,-1.26378 2.06929,-1.91693 0.542126,-0.637795 0.916535,-1.16575 1.13858,-1.58268l0 -30.7228 7.73622 0 0 31.9028c0,1.16693 0.167717,2.09764 0.527953,2.76496 0.347244,0.680315 0.930709,1.22126 1.75039,1.63819 0.458268,0.23622 1.16693,0.375591 2.13898,0.402756 0.957874,0.0283465 1.90276,0.0413386 2.81929,0.0413386l0 2.59724z"/>
</svg>