<?xml version="1.0" encoding="UTF-8"?>
<svg width="400" height="400" version="1.1" xmlns="http://www.w3.org/2000/svg">
 <path d="M877.811 169.291l-2.8063 15.7913 -24.013 0 0 -2.76378c1.65236,-2.36102 3.29173,-4.73622 4.90276,-7.12559 1.61102,-2.38819 2.93031,-4.65236 3.92953,-6.79134 1.13976,-2.41654 2.00079,-4.73622 2.57008,-6.95787 0.569291,-2.22283 0.84685,-4.94528 0.84685,-8.13898 0,-2.25 -0.23622,-4.86142 -0.70748,-7.83425 -0.472441,-2.97165 -1.27795,-5.54173 -2.38937,-7.70787 -1.51417,-2.8748 -3.41693,-4.95827 -5.69409,-6.25039 -2.27835,-1.29094 -4.88976,-1.92992 -7.84724,-1.92992 -2.95866,0 -5.59724,0.680315 -7.90276,2.02795 -2.30669,1.36063 -4.15394,3.41575 -5.57008,6.1937 -1.11142,2.13898 -1.91693,4.59803 -2.40236,7.3748 -0.486614,2.79213 -0.722835,5.48622 -0.722835,8.12598 0,2.98583 0.291732,5.69409 0.88937,8.11063 0.596457,2.43071 1.44449,4.79173 2.5689,7.07008 1.05591,2.25 2.40354,4.58268 4.04173,6.99921 1.63937,2.40354 3.22205,4.68071 4.73622,6.83386l0 2.76378 -24.1252 0 -2.80512 -15.7913 2.80512 0c0.431102,1.05472 0.833858,2.02795 1.19528,2.91614 0.374409,0.875197 0.861024,1.79173 1.48583,2.73661 0.569291,0.902362 1.20827,1.6252 1.91693,2.16614 0.70748,0.542126 1.59685,0.805512 2.67992,0.805512l9.36142 0 0 -1.33346c-1.76457,-1.98543 -3.65315,-4.20827 -5.69409,-6.65197 -2.02795,-2.45906 -3.61181,-4.59803 -4.72323,-6.41693 -1.27677,-2.0563 -2.27717,-4.33346 -3.02717,-6.80551 -0.75,-2.48622 -1.12559,-5.13898 -1.12559,-7.95827 0,-3.1252 0.638976,-6.01417 1.91693,-8.69528 1.27795,-2.66693 3.11102,-5.08346 5.50039,-7.26378 2.27717,-2.05512 5.05512,-3.70866 8.36102,-4.95827 3.29173,-1.24961 6.83386,-1.87441 10.6394,-1.87441 3.95787,0 7.5685,0.637795 10.8472,1.88858 3.26339,1.26378 6.05551,2.94449 8.36102,5.02795 2.30551,2.1248 4.08307,4.54134 5.34685,7.26378 1.26378,2.72244 1.88858,5.59724 1.88858,8.61142 0,2.81929 -0.347244,5.4437 -1.05472,7.87441 -0.708661,2.41654 -1.72205,4.73622 -3.05551,6.93071 -1.34764,2.19449 -2.97283,4.41732 -4.86142,6.63898 -1.88858,2.22165 -3.75,4.34764 -5.59724,6.38858l0 1.33346 9.23622 0c1.01339,0 1.88858,-0.277559 2.65276,-0.832677 0.75,-0.556299 1.40315,-1.26378 1.94409,-2.13898 0.624803,-0.972047 1.12559,-1.90276 1.51417,-2.8063 0.374409,-0.888189 0.764173,-1.83307 1.17992,-2.84646l2.8063 0z"/>
</svg>