<?xml version="1.0" encoding="UTF-8"?>
<svg width="400" height="400" version="1.1" xmlns="http://www.w3.org/2000/svg">
 <path d="M857.383 333.835c2.36102,0.193701 4.65354,0.75 6.88937,1.66654 2.22165,0.930709 4.17992,2.20866 5.88898,3.8752 1.73622,1.68071 3.15236,3.8185 4.23543,6.41575 1.08425,2.61142 1.6252,5.70945 1.6252,9.27874 0,2.90197 -0.374409,5.62441 -1.13858,8.16614 -0.764173,2.52756 -1.83307,4.70906 -3.20787,6.52795 -1.41732,1.90276 -3.05551,3.36142 -4.94528,4.3748 -1.88858,1.01457 -4.05472,1.52835 -6.49961,1.52835 -2.34685,0 -4.45866,-0.597638 -6.30591,-1.79173 -1.83307,-1.19409 -3.41693,-2.86181 -4.70787,-4.99961 -1.36181,2.16614 -2.93031,3.83268 -4.70906,5.01378 -1.77756,1.17992 -3.88819,1.77756 -6.3189,1.77756 -2.36102,0 -4.51417,-0.527953 -6.45827,-1.56969 -1.9311,-1.04173 -3.59764,-2.48622 -4.98661,-4.33346 -1.3748,-1.8189 -2.4437,-4.00039 -3.20787,-6.52795 -0.764173,-2.54173 -1.13976,-5.26417 -1.13976,-8.16614 0,-3.54213 0.527953,-6.59764 1.58386,-9.15354 1.05591,-2.54173 2.48622,-4.72205 4.27795,-6.49961 1.76339,-1.72205 3.75,-3.01417 5.95866,-3.91654 2.20748,-0.88937 4.48583,-1.44449 6.81969,-1.66654l0.61063 3.26339c-1.95827,0.23622 -3.6248,0.88937 -5.01378,1.9311 -1.3748,1.04173 -2.50039,2.3752 -3.37559,3.99921 -0.805512,1.55551 -1.43031,3.54213 -1.84724,5.95866 -0.415748,2.43071 -0.638976,4.91693 -0.638976,7.47283 0,2.06929 0.153543,4.02756 0.431102,5.90197 0.291732,1.87559 0.721654,3.5563 1.31929,5.04213 0.624803,1.5 1.45866,2.69409 2.48622,3.58346 1.02756,0.88937 2.26417,1.34764 3.70866,1.34764 2.22165,0 3.88819,-0.722835 4.99961,-2.13898 1.11142,-1.4315 1.66654,-3.90354 1.66654,-7.4315l0 -15.013 7.65354 0 0 15.013c0,3.44528 0.540945,5.90315 1.65236,7.36181 1.09724,1.47165 2.76378,2.20866 5.01378,2.20866 1.47283,0 2.72244,-0.458268 3.75,-1.36181 1.02756,-0.916535 1.84724,-2.09646 2.44488,-3.56929 0.651969,-1.59685 1.09724,-3.29173 1.36063,-5.06929 0.250394,-1.77756 0.388583,-3.73583 0.388583,-5.8748 0,-2.73661 -0.193701,-5.25 -0.596457,-7.52835 -0.389764,-2.27717 -1.02756,-4.24961 -1.88976,-5.90315 -0.916535,-1.73622 -2.04094,-3.08268 -3.36024,-4.04173 -1.3063,-0.972047 -2.98701,-1.59685 -5.02795,-1.88858l0.61063 -3.26339z"/>
</svg>