<?xml version="1.0" encoding="UTF-8"?>
<svg width="400" height="400" version="1.1" xmlns="http://www.w3.org/2000/svg">
 <path d="M176.983 367.32c1.33346,-2.73543 2.38937,-6.0685 3.18071,-9.99921 0.777165,-3.94488 1.17992,-8.09764 1.17992,-12.5008 0,-0.805512 -0.0129921,-1.74921 -0.0413386,-2.80512 -0.0271654,-1.05591 -0.069685,-1.95827 -0.125197,-2.6811l-2.52756 0c-1.43031,0 -2.58307,0.23622 -3.45827,0.722835 -0.861024,0.499606 -1.58386,1.12441 -2.15315,1.91693 -0.458268,0.624803 -0.819685,1.43031 -1.08307,2.40236 -0.250394,0.972047 -0.431102,2.02795 -0.542126,3.16654l-2.5689 0c-0.0838583,-0.75 -0.152362,-1.5 -0.207874,-2.25 -0.0425197,-0.75 -0.069685,-1.59685 -0.069685,-2.54173 0,-0.930709 0.166535,-1.84724 0.527953,-2.76378 0.347244,-0.930709 0.929528,-1.83307 1.74921,-2.73543 0.694488,-0.806693 1.66654,-1.50118 2.88898,-2.0563 1.22244,-0.555118 2.57008,-0.832677 4.07008,-0.832677l34.8614 0 0 4.97126 -9.15354 0 0 26.6114c0,1.6252 0.51378,2.91732 1.52835,3.8752 1.01339,0.972047 2.47205,1.44449 4.3748,1.44449 0.374409,0 0.833858,0 1.36063,-0.0271654 0.527953,-0.0283465 1.00039,-0.0555118 1.40315,-0.0838583l0 2.59724c-1.27795,0.431102 -2.54173,0.805512 -3.81969,1.09724 -1.27795,0.305906 -2.86063,0.458268 -4.76339,0.458268 -2.57008,0 -4.51417,-0.791339 -5.79213,-2.36102 -1.29094,-1.58386 -1.94409,-3.72283 -1.94409,-6.4311l0 -27.1807 -10.6949 0c0.0283465,0.694488 0.0555118,1.55551 0.0838583,2.58425 0.0271654,1.01339 0.0413386,2.11063 0.0413386,3.27756 0,3.36142 -0.305906,7.02756 -0.916535,11.0138 -0.611811,4.00039 -1.51417,7.43031 -2.70827,10.3051 -1.16693,2.82047 -2.50039,5.00079 -3.98622,6.52795 -1.5,1.52835 -3.23622,2.29252 -5.20866,2.29252 -1.6252,0 -2.81929,-0.51378 -3.58346,-1.55551 -0.764173,-1.05591 -1.13858,-2.13898 -1.13858,-3.27874 0,-0.98622 0.361417,-1.92992 1.08307,-2.8748 0.708661,-0.930709 1.77756,-1.40315 3.19488,-1.40315 0.861024,0 1.76339,0.13937 2.69409,0.431102 0.944882,0.277559 1.69488,0.51378 2.26417,0.666142z"/>
</svg>