<?xml version="1.0" encoding="UTF-8"?>
<svg width="400" height="400" version="1.1" xmlns="http://www.w3.org/2000/svg">
 <path d="M396.976 167.054l-1.91693 18.0283 -45.9862 0 0 -1.43031 23.237 -25.8756 -22.5839 -29.0138 0 -1.41732 43.5413 0 0 15.3343 -2.88898 0c-0.596457,-2.70827 -1.74921,-5.26417 -3.44409,-7.66654 -1.69488,-2.40354 -3.44409,-3.75 -5.26417,-4.04173 -0.818504,-0.13937 -1.97244,-0.250394 -3.47244,-0.305906 -1.51299,-0.069685 -2.73543,-0.111024 -3.69449,-0.111024l-12.5693 0 18.111 23.2772 0 0.65315 -21.1665 23.4307 26.5701 0c1.22244,0 2.30551,-0.361417 3.26339,-1.09724 0.944882,-0.721654 1.76457,-1.66654 2.44488,-2.80512 0.624803,-1.02756 1.17992,-2.18031 1.66654,-3.4311 0.486614,-1.26378 0.916535,-2.4437 1.29213,-3.52795l2.86063 0z"/>
</svg>